<svg xmlns="http://www.w3.org/2000/svg"
  viewBox="0 0 1250 306"
  role="img"
  aria-labelledby="title desc"
  shape-rendering="geometricPrecision">
  <title id="title">TapeSift cut-slit wordmark — black</title>
  <desc id="desc">The typed-out TapeSift name with edit-cut slits crossing Sift.</desc>
  <!-- Approved cut-slit wordmark. Outlined paths; no font dependency. -->
  <path d="M407.118 255.25 C407.184 236.137 407.184 220.162 407.118 219.75 C406.839 217.983 408.877 219.301 413.042 223.584 C415.494 226.105 419.75 229.368 422.5 230.834 L427.5 233.5 L453.264 233.825 C483.165 234.202 490.433 233.388 500.781 228.505 C513.011 222.734 520.812 213.055 524.775 198.735 L526.5 192.5 L526.5 151 L526.5 109.5 L524.662 103.543 C520.433 89.839 512.988 80.575 501.78 75.071 C491.93 70.233 482.958 69 457.622 69 L435.42 69 L429.587 70.519 C422.393 72.393 418.974 74.633 412.274 81.862 L407.049 87.5 L407.024 79.25 L407 71 L388.5 71 L370 71 L370 180.5 L370 290 L388.5 290 L407 290 L407.118 255.25 Z M130.755 142.763 L131.011 52.026 L166.255 51.763 L201.5 51.5 L201.5 34 L201.5 16.5 L109 16.5 L16.5 16.5 L16.5 34 L16.5 51.5 L52.75 51.762 L89 52.025 L89 142.346 C89 192.022 89.309 232.976 89.687 233.353 C90.065 233.731 99.402 233.919 110.437 233.77 L130.5 233.5 L130.755 142.763 Z M286.281 230.791 C289.461 229.301 294.715 225.552 297.958 222.459 L303.853 216.836 L304.426 221.168 C304.741 223.551 305.112 227.3 305.25 229.5 L305.5 233.5 L308.5 233.437 C310.15 233.402 318.156 233.289 326.29 233.187 L341.081 233 L340.79 166.75 L340.5 100.5 L338.179 94.753 C335.328 87.693 327.318 78.702 321.049 75.525 C318.5 74.233 313.734 72.349 310.457 71.338 L304.5 69.5 L270 69.5 L235.5 69.5 L229.543 71.338 C211.035 77.049 199.821 89.044 197.056 106.086 C196.483 109.614 196.012 114.412 196.008 116.75 L196 121 L214.87 121 L233.74 121 L234.26 116.386 C234.818 111.434 236.975 107.854 241.385 104.562 L244.147 102.5 L269 102.5 L293.853 102.5 L296.615 104.562 C298.134 105.696 300.304 107.865 301.438 109.382 L303.5 112.139 L303.5 124.32 L303.5 136.5 L268.5 137.006 L233.5 137.512 L224.956 140.566 C205.103 147.662 194.048 159.931 190.948 178.309 C189.59 186.36 190.253 198.122 192.489 205.652 C196.555 219.342 208.828 229.515 225.5 233.015 C227.7 233.476 240.975 233.775 255 233.677 L280.5 233.5 L286.281 230.791 Z M670.163 232.553 C685.064 229.395 695.583 221.669 701.623 209.449 L705.277 202.054 L706.312 193.701 C706.882 189.106 707.058 184.594 706.705 183.674 L706.063 182 L688.031 182 L670 182 L670 184.351 C670 191.259 664.24 199.283 658.044 201.004 C656.095 201.546 643.505 201.991 630.066 201.994 L605.631 202 L601.25 199.879 C598.615 198.603 595.798 196.143 594.184 193.707 L591.5 189.656 L591.171 176.828 L590.841 164 L648.921 164 L707 164 L706.983 138.25 L706.965 112.5 L705.486 105.517 C703.354 95.45 699.814 88.969 693.006 82.666 C685.817 76.01 679.056 72.68 668.31 70.503 L660.179 68.855 L626.84 69.201 L593.5 69.546 L587 71.824 C579.25 74.541 568.586 81.54 564.711 86.454 C560.999 91.161 557.451 98.367 555.825 104.5 L554.5 109.5 L554.5 152.5 L554.5 195.5 L556.827 201.946 C562.79 218.468 575.721 229.409 593.5 232.978 C595.7 233.42 612.35 233.822 630.5 233.873 L663.5 233.965 L670.163 232.553 Z M872.613 232.452 C889.996 229.421 903.815 220.091 910.392 206.944 C915.526 196.681 916.182 191.883 915.82 167.254 L915.5 145.5 L912.899 139.954 C908.26 130.063 901.762 124.377 889.983 119.902 C887.229 118.855 875.644 116.434 864.238 114.522 C834.603 109.553 744.378 95.025 738.809 94.325 L734.117 93.735 L734.641 99.618 C735.738 111.926 739.815 119.563 748.469 125.523 C757.662 131.855 763.731 133.321 816.821 142.035 L867.141 150.294 L870.321 152.417 C872.069 153.585 874.31 156.106 875.3 158.02 L877.101 161.5 L876.8 174 L876.5 186.5 L874.155 190.271 C870.873 195.551 866.398 198.661 859.501 200.458 L853.58 202 L825 202 L796.42 202 L790.499 200.458 C778.847 197.423 774.277 191.306 773.298 177.435 L772.703 169 L753.851 169 L735 169 L735 180.79 C735 193.891 736.534 201.536 740.698 209.186 C746.561 219.959 760.913 229.525 775.585 232.439 L782.5 233.812 L823.119 233.906 L863.738 234 L872.613 232.452 Z M974.121 233 L980.934 233 L981.217 164.75 L981.5 96.5 L982.785 94.25 L984.07 92 L982.285 92.018 C980.118 92.039 943.095 100.572 942.474 101.193 C942.232 101.435 942.477 103.175 943.017 105.06 C943.614 107.14 944 132.929 944 170.677 L944 232.867 L946.75 233.35 C948.263 233.615 953.507 233.645 958.404 233.416 C963.301 233.187 970.373 233 974.121 233 Z M1062.742 233.014 L1075.985 233 L1076.242 172.25 L1076.5 111.5 L1097.25 111.23 L1118 110.959 L1118 95.48 L1118 80 L1097.559 80 C1086.316 80 1076.897 79.642 1076.627 79.205 C1076.357 78.768 1076.398 74.009 1076.719 68.628 L1077.303 58.846 L1079.439 55.673 C1080.614 53.928 1082.908 51.825 1084.537 51.001 L1087.5 49.501 L1103.75 49.165 L1120 48.828 L1120 32.304 L1120 15.78 L1098.25 16.251 L1076.5 16.722 L1071 18.455 C1058.082 22.523 1047.105 32.01 1042.883 42.753 L1040.625 48.5 L1040.062 64 L1039.5 79.5 L1023.25 79.775 L1007 80.05 L1007 95.5 L1007 110.95 L1023.25 111.225 L1039.5 111.5 L1039.758 172.184 L1040.015 232.869 L1042.758 233.304 C1044.266 233.544 1046.4 233.58 1047.5 233.384 C1048.6 233.188 1055.459 233.021 1062.742 233.014 Z M1233 218.111 L1233 202.222 L1218.75 201.815 L1204.5 201.408 L1201.267 199.687 C1199.489 198.741 1197.351 196.646 1196.517 195.033 L1195 192.099 L1195 151.55 L1195 111 L1214 111 L1233 111 L1233 95.5 L1233 80 L1214.023 80 L1195.045 80 L1194.773 61.75 L1194.5 43.5 L1176.25 43.227 L1158 42.955 L1158 61.477 L1158 80 L1146 80 L1134 80 L1134 95.5 L1134 111 L1146 111 L1158 111 L1158 153.951 C1158 198.309 1158.379 203.491 1162.22 211.716 C1167.112 222.194 1178.243 230.143 1191.351 232.522 C1195.283 233.236 1206.263 233.86 1215.75 233.91 L1233 234 L1233 218.111 Z M236.405 201.096 C233.877 199.948 231.39 197.755 229.909 195.368 L227.509 191.5 L227.639 185.284 L227.77 179.069 L230.351 174.665 C231.95 171.936 234.372 169.545 236.716 168.38 L240.5 166.5 L272.25 166.21 L304 165.92 L304 173.779 C304 178.101 303.324 183.912 302.499 186.692 L300.997 191.748 L296.594 195.807 C293.817 198.366 290.24 200.445 286.913 201.433 L281.637 203 L261.068 202.978 L240.5 202.956 L236.405 201.096 Z M422.215 200.743 C420.408 200.164 416.929 197.929 414.483 195.776 L410.037 191.862 L408.518 186.75 L407 181.637 L407 152.5 L407 123.363 L408.47 118.414 C410.168 112.694 415.419 107.018 421.5 104.329 L425.5 102.559 L446.175 102.193 C459.798 101.952 468.838 102.238 472.675 103.031 L478.5 104.235 L483.133 108.867 L487.765 113.5 L488.948 119.223 C489.754 123.122 490.03 134.755 489.815 155.723 L489.5 186.5 L487.259 190.692 C484.766 195.356 480.241 199.141 475.101 200.862 C470.745 202.32 426.83 202.222 422.215 200.743 Z M591.022 125.25 L591.044 116.5 L592.905 112.401 C596.988 103.412 602.058 102.013 630.568 102.006 L652.637 102 L657.609 103.476 C662.943 105.06 667.222 108.777 668.936 113.315 C669.521 114.863 670 120.151 670 125.065 L670 134 L630.5 134 L591 134 L591.022 125.25 Z M969.75 83.904 C982.165 81.022 984.45 80.014 982 78.5 C981.406 78.133 981 71.823 981 62.941 L981 48 L962.5 48 L944 48 L944 68.911 L944 89.823 L950.25 88.402 C953.688 87.62 962.462 85.596 969.75 83.904 Z M773.559 78.25 L773.515 67.5 L775.666 63.5 C778.418 58.383 782.447 54.576 787.5 52.32 L791.5 50.535 L821.216 50.189 C854.718 49.8 859.722 50.372 866.183 55.325 C872.02 59.8 874.255 64.685 874.804 74.168 L875.259 82.043 L893.88 81.772 L912.5 81.5 L912.792 72.526 C913.75 43.101 901.712 25.838 875 18.327 L868.5 16.5 L825 16.5 L781.5 16.5 L775 18.267 C754.874 23.737 741.195 36.636 736.531 54.542 C734.608 61.927 734.412 81.508 736.25 82.678 C737.714 83.61 766.08 88.756 770.551 88.901 L773.603 89 L773.559 78.25 Z" fill="#0A0C0B" fill-rule="evenodd"/>
</svg>
